<?xml version="1.0" encoding="UTF-8"?>
<svg version="1.1" xmlns="http://www.w3.org/2000/svg" width="1200" height="1200">
<path d="M0 0 C1.29801041 -0.0033284 2.59602081 -0.0066568 3.93336487 -0.01008606 C6.66188386 -0.01600985 9.39037153 -0.01793323 12.11889648 -0.01733398 C14.85952414 -0.01725315 17.5999831 -0.02413924 20.34057617 -0.0378418 C42.30798524 -0.14583991 64.00291452 0.73395123 85.75390625 3.98046875 C87.49474487 4.23594482 87.49474487 4.23594482 89.27075195 4.49658203 C101.2080052 6.29913566 113.02687407 8.5765951 124.81640625 11.16796875 C126.3487793 11.50417236 126.3487793 11.50417236 127.91210938 11.84716797 C173.9203116 22.0912947 218.59482177 39.30181523 259.81640625 62.16796875 C260.51765625 62.55130371 261.21890625 62.93463867 261.94140625 63.32958984 C272.36039108 69.06054024 282.23204229 75.65438717 292.12890625 82.23046875 C292.76716339 82.65376465 293.40542053 83.07706055 294.0630188 83.51318359 C302.52682446 89.13837581 310.75447073 94.97509226 318.81640625 101.16796875 C319.48293213 101.67674561 320.14945801 102.18552246 320.83618164 102.7097168 C333.46551326 112.39966322 345.49219895 122.75751886 357.13720703 133.60644531 C359.04452958 135.38010554 360.96002917 137.14475763 362.875 138.91015625 C364.29333525 140.22486513 365.7113068 141.53996651 367.12890625 142.85546875 C367.78681152 143.46108643 368.4447168 144.0667041 369.12255859 144.69067383 C373.08181998 148.38228234 376.72397594 152.22253395 380.22583008 156.3515625 C381.80537677 158.1553733 383.46135621 159.82166541 385.19140625 161.48046875 C388.97809498 165.19938676 392.24304404 169.28622114 395.56640625 173.41796875 C397.56638051 175.86238173 399.62660101 178.20979526 401.75390625 180.54296875 C411.39702958 191.30827014 419.61568088 203.29307329 427.81640625 215.16796875 C428.46609375 216.10745361 428.46609375 216.10745361 429.12890625 217.06591797 C436.02899471 227.09530435 442.31627679 237.46770073 448.50341797 247.94873047 C449.61057448 249.8200679 450.72971538 251.68430732 451.8515625 253.546875 C483.5632899 306.6405416 502.37315339 368.91831342 511.00390625 429.79296875 C511.15883545 430.87433105 511.31376465 431.95569336 511.47338867 433.06982422 C514.3741515 454.57368279 515.19122905 475.98492636 515.12890625 497.66796875 C515.12698172 499.00135283 515.12514131 500.33473703 515.12338257 501.66812134 C515.08566211 521.35221781 514.525656 540.65344106 511.81640625 560.16796875 C511.64188859 561.50359012 511.46858961 562.83937118 511.29638672 564.17529297 C505.25363875 610.67764427 491.95240489 655.02524431 473.81640625 698.16796875 C473.44870117 699.04291992 473.08099609 699.91787109 472.70214844 700.81933594 C467.70451887 712.61144175 461.96748447 723.9385263 455.81640625 735.16796875 C455.07148926 736.53211914 455.07148926 736.53211914 454.31152344 737.92382812 C440.52630456 763.05196884 424.82038814 786.86153933 406.81640625 809.16796875 C406.03394531 810.14507813 405.25148438 811.1221875 404.4453125 812.12890625 C400.09799536 817.50842868 395.60019825 822.71248864 390.94140625 827.82421875 C388.99145901 829.97489586 387.08614496 832.15621846 385.19140625 834.35546875 C382.44041734 837.51847213 379.53944936 840.46922451 376.546875 843.40234375 C374.81038353 845.17411383 373.22356999 847.01827248 371.62890625 848.91796875 C367.29868492 853.93292442 362.36686135 858.26885517 357.44873047 862.68847656 C355.79767108 864.18494978 354.16588888 865.69989642 352.5390625 867.22265625 C346.77875065 872.61282758 340.95852082 877.83878608 334.796875 882.7734375 C332.59020221 884.5462952 330.41054111 886.33772334 328.2421875 888.15625 C319.00800183 895.85881516 309.42552098 902.81306813 299.40283203 909.45263672 C296.71883651 911.23267754 294.04718871 913.03041916 291.375 914.828125 C261.0285598 935.09242034 228.75406256 950.88045453 194.81640625 964.16796875 C193.37092535 964.74567257 191.92558886 965.32373801 190.48046875 965.90234375 C136.72318621 986.86430298 78.52057298 996.35711735 21.03637695 996.35327148 C17.41670752 996.35544604 13.79734977 996.37363499 10.17773438 996.39257812 C-56.60176906 996.55292295 -121.98213757 981.49682913 -183.18359375 955.16796875 C-184.07256348 954.78962891 -184.9615332 954.41128906 -185.87744141 954.02148438 C-220.96510302 939.01950585 -253.88670649 919.33566083 -284.18359375 896.16796875 C-285.05153564 895.50619629 -285.05153564 895.50619629 -285.93701172 894.83105469 C-298.66373606 885.08545955 -310.77773144 874.6544915 -322.50439453 863.72949219 C-324.41171708 861.95583196 -326.32721667 860.19117987 -328.2421875 858.42578125 C-329.66052275 857.11107237 -331.0784943 855.79597099 -332.49609375 854.48046875 C-333.15399902 853.87485107 -333.8119043 853.2692334 -334.48974609 852.64526367 C-338.44900748 848.95365516 -342.09116344 845.11340355 -345.59301758 840.984375 C-347.17256427 839.1805642 -348.82854371 837.51427209 -350.55859375 835.85546875 C-354.34528248 832.13655074 -357.61023154 828.04971636 -360.93359375 823.91796875 C-362.93356801 821.47355577 -364.99378851 819.12614224 -367.12109375 816.79296875 C-372.14935414 811.18071749 -376.68740517 805.20748573 -381.18359375 799.16796875 C-381.92851074 798.16781738 -381.92851074 798.16781738 -382.68847656 797.14746094 C-394.85142877 780.73544246 -405.93562637 763.7038571 -416.11962891 745.99902344 C-417.07278655 744.35866495 -418.05414382 742.73476843 -419.0390625 741.11328125 C-424.04169325 732.84806523 -428.0815297 724.18970987 -432.12988281 715.43115234 C-433.04484157 713.46598375 -433.97789153 711.51192313 -434.92578125 709.5625 C-456.6320799 664.43624755 -470.36671717 615.97762521 -477.37109375 566.48046875 C-477.52610352 565.39040527 -477.68111328 564.3003418 -477.84082031 563.17724609 C-478.33366846 559.51202356 -478.77557533 555.84340587 -479.18359375 552.16796875 C-479.27186432 551.37983795 -479.36013489 550.59170715 -479.45108032 549.7796936 C-481.2754738 532.93137684 -481.54256524 516.16567257 -481.49609375 499.23046875 C-481.49446911 497.87266046 -481.49296463 496.51485201 -481.49157715 495.15704346 C-481.46000308 475.32654029 -480.89106763 455.83508236 -478.18359375 436.16796875 C-477.90206255 433.92191023 -477.62081311 431.67581637 -477.33984375 429.4296875 C-467.28160541 352.87129786 -437.93495273 278.65797714 -394.18359375 215.16796875 C-393.69536133 214.45302246 -393.20712891 213.73807617 -392.70410156 213.00146484 C-385.80361827 202.91456854 -378.45409221 193.32259602 -370.63964844 183.92822266 C-368.60498254 181.46847397 -366.6178605 178.97102078 -364.62109375 176.48046875 C-359.95265348 170.78869285 -354.9768885 165.40313969 -349.93896484 160.04101562 C-347.99856763 157.97053893 -346.06955891 155.88975212 -344.140625 153.80859375 C-342.7386157 152.30307389 -341.33627509 150.7978625 -339.93359375 149.29296875 C-339.28447021 148.59155762 -338.63534668 147.89014648 -337.96655273 147.16748047 C-334.16300487 143.10566402 -330.23127576 139.34076365 -325.98461914 135.74316406 C-324.18531549 134.1694746 -322.5249288 132.51775781 -320.87109375 130.79296875 C-317.15217574 127.00628002 -313.06534136 123.74133096 -308.93359375 120.41796875 C-306.48918077 118.41799449 -304.14176724 116.35777399 -301.80859375 114.23046875 C-296.19634249 109.20220836 -290.22311073 104.66415733 -284.18359375 100.16796875 C-283.51682617 99.67135742 -282.85005859 99.17474609 -282.16308594 98.66308594 C-265.20471388 86.09523091 -247.59364676 74.50032251 -229.18359375 64.16796875 C-228.21019043 63.61915039 -227.23678711 63.07033203 -226.23388672 62.50488281 C-158.06937747 24.33275763 -78.46913705 0.07255902 0 0 Z M-52.18359375 90.16796875 C-53.2293457 90.35230469 -54.27509766 90.53664063 -55.35253906 90.7265625 C-112.46062076 100.99079782 -168.59069483 122.6198815 -216.18359375 156.16796875 C-216.83714844 156.62606934 -217.49070312 157.08416992 -218.1640625 157.55615234 C-231.98211562 167.27158332 -245.34687956 177.51622097 -257.77734375 188.97265625 C-259.77210839 190.79255516 -261.79692181 192.5562006 -263.84375 194.31640625 C-268.80417767 198.64825888 -273.46769785 203.26060876 -278.12109375 207.91796875 C-279.00772705 208.80468262 -279.89436035 209.69139648 -280.80786133 210.60498047 C-285.96563066 215.80803939 -290.83964659 221.0303267 -295.33203125 226.8203125 C-297.27698736 229.28638555 -299.35455007 231.55879558 -301.49609375 233.85546875 C-323.64342137 258.26742779 -340.45277139 287.89111929 -355.18359375 317.16796875 C-355.58674805 317.95961426 -355.98990234 318.75125977 -356.40527344 319.56689453 C-375.55165534 357.36181976 -387.11580782 398.96916905 -393.05859375 440.79296875 C-393.16223236 441.52200409 -393.26587097 442.25103943 -393.37265015 443.00216675 C-394.6390089 452.03641333 -395.61951367 461.05965037 -396.18359375 470.16796875 C-396.2496582 471.18536133 -396.31572266 472.20275391 -396.38378906 473.25097656 C-399.02350347 517.4627377 -394.4414604 561.37454882 -383.18359375 604.16796875 C-382.90789551 605.21984375 -382.63219727 606.27171875 -382.34814453 607.35546875 C-375.7127108 632.2314044 -366.36666118 656.00505543 -355.18359375 679.16796875 C-354.7448291 680.08255859 -354.30606445 680.99714844 -353.85400391 681.93945312 C-348.82484765 692.37725371 -343.52446986 702.4618232 -337.18359375 712.16796875 C-335.72427546 709.24933217 -336.66117042 707.50318322 -337.44140625 704.359375 C-337.73490967 703.151604 -338.02841309 701.94383301 -338.33081055 700.69946289 C-338.49028168 700.05365265 -338.64975281 699.40784241 -338.8140564 698.74246216 C-363.31634028 599.05649644 -360.03303352 493.17323862 -296.89282227 366.34008789 C-291.6212718 357.73219493 -286.14994745 349.31016027 -280.18359375 341.16796875 C-279.68875488 340.4920166 -279.19391602 339.81606445 -278.68408203 339.11962891 C-270.91808955 328.56147878 -262.87220114 318.27003863 -254.37109375 308.29296875 C-253.92185547 307.76429199 -253.47261719 307.23561523 -253.00976562 306.69091797 C-244.18581175 296.41364298 -234.84877845 286.66803644 -225.25756836 277.11157227 C-223.48368372 275.34309656 -221.71527598 273.56926831 -219.94726562 271.79492188 C-214.19311306 266.03745167 -208.38940362 260.44229308 -202.18359375 255.16796875 C-200.6179916 253.73384797 -199.0550189 252.29684479 -197.49609375 250.85546875 C-148.59959773 206.86348449 -83.99242699 180.86875232 -19.18359375 173.16796875 C-18.30985107 173.06339355 -17.4361084 172.95881836 -16.53588867 172.85107422 C-5.77581683 171.76486561 5.07587646 171.92407479 15.87890625 171.91796875 C17.48585861 171.91695663 17.48585861 171.91695663 19.12527466 171.91592407 C35.54062789 171.93233835 51.59692728 172.40504597 67.81640625 175.16796875 C68.86151367 175.34489258 69.90662109 175.52181641 70.98339844 175.70410156 C122.23387437 184.67177324 172.72707416 204.87553974 213.81640625 237.16796875 C214.94311853 238.02851276 216.07076572 238.8878337 217.19921875 239.74609375 C224.97907867 245.70538692 232.22370193 252.07209223 239.34521484 258.79833984 C241.47887379 260.78470339 243.68235492 262.68917915 245.87890625 264.60546875 C259.72807726 277.04054288 271.26899164 291.83997297 282.17138672 306.84619141 C282.74518066 307.63558105 283.31897461 308.4249707 283.91015625 309.23828125 C284.42255859 309.94742676 284.93496094 310.65657227 285.46289062 311.38720703 C286.83805824 313.27966406 286.83805824 313.27966406 288.81640625 315.16796875 C281.27720143 272.2098874 261.58528122 230.1379355 243.11083984 190.92871094 C241.96105242 188.47646721 240.83056193 186.01689994 239.7109375 183.55078125 C235.60125075 174.54890837 231.08041164 165.81367085 226.20751953 157.19848633 C223.93050521 153.16221833 221.74893818 149.26045803 220.18359375 144.890625 C216.15817506 134.20016881 208.64569869 130.51690819 198.55200195 125.80737305 C194.98949916 124.22057175 191.40815459 122.68729103 187.81640625 121.16796875 C186.69073242 120.678125 185.56505859 120.18828125 184.40527344 119.68359375 C139.93427869 100.37433195 92.31050459 87.95177609 43.81640625 85.16796875 C42.8320459 85.1023877 41.84768555 85.03680664 40.83349609 84.96923828 C9.84756369 82.97369638 -21.6230965 84.70569189 -52.18359375 90.16796875 Z M-143.18359375 316.16796875 C-144.04855469 316.91949219 -144.91351563 317.67101562 -145.8046875 318.4453125 C-156.56497767 327.96601724 -166.21842698 337.87584281 -174.82910156 349.36914062 C-176.16621621 351.14489058 -177.52800252 352.89917298 -178.89453125 354.65234375 C-215.8687951 402.75600684 -231.66015369 466.77601861 -224.43359375 526.67578125 C-216.16077234 589.68552468 -184.82161836 648.95742501 -134.18359375 688.16796875 C-133.23871094 688.90660156 -132.29382813 689.64523437 -131.3203125 690.40625 C-80.04558383 729.72819424 -15.12270533 747.30427805 48.94140625 738.85546875 C70.89652314 735.74882928 92.49284299 730.11053936 112.81640625 721.16796875 C113.52555176 720.86052734 114.23469727 720.55308594 114.96533203 720.23632812 C137.61286369 710.31855784 157.74252197 696.73381624 176.29785156 680.49121094 C177.5312625 679.41643806 178.77745243 678.35634318 180.02734375 677.30078125 C226.49869842 637.88836653 253.99386779 577.55720028 259.04638672 517.43115234 C263.79391253 453.27693671 243.27562718 389.18231886 201.25830078 340.35742188 C197.88385625 336.52287572 194.3735557 332.83243635 190.81640625 329.16796875 C190.27016602 328.59594727 189.72392578 328.02392578 189.16113281 327.43457031 C180.94249079 318.84086191 172.38205561 311.2233583 162.81640625 304.16796875 C162.18428223 303.69149902 161.5521582 303.2150293 160.90087891 302.72412109 C82.96689419 244.13367184 -26.80179634 240.23880031 -143.18359375 316.16796875 Z M367.81640625 280.16796875 C368.81640625 282.16796875 368.81640625 282.16796875 368.81640625 282.16796875 Z M368.81640625 282.16796875 C369.4534561 289.36940183 371.23290072 296.24363491 372.96841431 303.24230957 C396.12568252 397.32836221 394.21761567 499.03232606 352.84619141 587.94824219 C351.79431079 590.21559604 350.76385117 592.49192911 349.734375 594.76953125 C334.66029377 627.76815295 313.84278685 658.17622383 290.17236328 685.58544922 C288.75652109 687.23785993 287.36063256 688.90549475 285.96875 690.578125 C281.40018947 696.0593028 276.77887411 701.37247139 271.64453125 706.33984375 C269.75875493 708.22562007 268.04008044 710.19622264 266.31640625 712.23046875 C263.44652409 715.56678774 260.3639772 718.39316317 257.0078125 721.23046875 C253.4721999 724.35642926 250.21267139 727.75260107 246.91796875 731.12890625 C244.81640625 733.16796875 244.81640625 733.16796875 242.81640625 734.16796875 C242.81640625 734.82796875 242.81640625 735.48796875 242.81640625 736.16796875 C242.21570313 736.43738281 241.615 736.70679688 240.99609375 736.984375 C238.80161751 738.17599919 237.60308546 739.26863957 235.94140625 741.10546875 C230.966295 746.22940811 225.27127505 750.43692513 219.61865234 754.77587891 C217.9393173 756.07302987 216.27590649 757.38758509 214.6171875 758.7109375 C168.13494085 795.3951698 109.40162175 817.03072279 50.81640625 823.16796875 C49.95635986 823.26368164 49.09631348 823.35939453 48.21020508 823.45800781 C38.12426757 824.45331299 28.00411769 824.4116494 17.87890625 824.41796875 C16.90553314 824.41864349 15.93216003 824.41931824 14.92929077 824.42001343 C-34.28430497 824.36603954 -81.82723576 813.62474232 -126.18359375 792.16796875 C-127.62774658 791.4704248 -127.62774658 791.4704248 -129.10107422 790.75878906 C-156.38836593 777.42338773 -183.62406911 760.22276161 -204.96484375 738.3125 C-206.90897859 735.93630926 -206.90897859 735.93630926 -209.18359375 736.16796875 C-209.18359375 735.50796875 -209.18359375 734.84796875 -209.18359375 734.16796875 C-210.83808059 732.53327975 -210.83808059 732.53327975 -212.93359375 730.85546875 C-216.09894579 728.16853547 -218.65866187 725.47650018 -221.18359375 722.16796875 C-222.84328409 720.49435484 -224.51082437 718.82851028 -226.18359375 717.16796875 C-237.12774946 705.84446622 -246.31787571 693.15437265 -255.18359375 680.16796875 C-256.37057611 683.72891583 -255.92059793 684.99601555 -254.953125 688.57421875 C-254.65100098 689.69280273 -254.34887695 690.81138672 -254.03759766 691.96386719 C-253.52205322 693.79739746 -253.52205322 693.79739746 -252.99609375 695.66796875 C-252.82019714 696.29900513 -252.64430054 696.9300415 -252.46307373 697.5802002 C-238.7483109 746.57176072 -218.9992357 795.3543377 -194.4765625 839.8984375 C-192.92000122 842.72837299 -191.53219647 845.57418004 -190.234375 848.53125 C-185.04378866 859.84613085 -178.15694752 864.09792447 -166.92138672 868.96728516 C-164.10112413 870.20413654 -161.33330387 871.52346432 -158.5625 872.8671875 C-112.27549671 895.09334511 -61.400233 907.96380786 -10.18359375 911.16796875 C-9.16620117 911.2364502 -8.14880859 911.30493164 -7.10058594 911.37548828 C92.61058969 917.73970512 193.72807691 885.56833898 285.44580078 812.74072266 C287.71832869 810.71320733 289.96231229 808.65714175 292.19140625 806.58203125 C294.26736231 804.67289309 296.37029468 802.82647703 298.5078125 800.98828125 C303.45921473 796.66842951 308.11091681 792.06491378 312.75390625 787.41796875 C313.63981445 786.53197998 314.52572266 785.64599121 315.43847656 784.7331543 C320.51777844 779.60922296 325.38750761 774.48884289 329.76953125 768.75 C331.63353528 766.39865141 333.57871681 764.19395056 335.58984375 761.96875 C339.72388404 757.34608064 343.49486916 752.51924552 347.19140625 747.54296875 C347.84278564 746.66833984 348.49416504 745.79371094 349.1652832 744.89257812 C364.4728136 724.20253333 377.25594927 702.14385906 388.81640625 679.16796875 C389.21956055 678.37632324 389.62271484 677.58467773 390.03808594 676.76904297 C421.84992974 613.97251754 434.03144899 541.04083129 429.81640625 471.16796875 C429.73350342 469.78230713 429.73350342 469.78230713 429.64892578 468.36865234 C425.64535493 406.63653856 406.11468485 347.63356939 376.62890625 293.54296875 C376.18353516 292.72570312 375.73816406 291.9084375 375.27929688 291.06640625 C373.37783943 287.65975155 371.68749245 284.84915876 368.81640625 282.16796875 Z M-257.18359375 678.16796875 C-256.18359375 680.16796875 -256.18359375 680.16796875 -256.18359375 680.16796875 Z " fill="#FEFEFE" transform="translate(583.18359375,101.83203125)"/>
</svg>
