<?xml version="1.0" encoding="UTF-8"?>
<svg version="1.1" xmlns="http://www.w3.org/2000/svg" width="1200" height="1200">
<path d="M0 0 C1.29801041 -0.0033284 2.59602081 -0.0066568 3.93336487 -0.01008606 C6.66188386 -0.01600985 9.39037153 -0.01793323 12.11889648 -0.01733398 C14.85952414 -0.01725315 17.5999831 -0.02413924 20.34057617 -0.0378418 C42.30798524 -0.14583991 64.00291452 0.73395123 85.75390625 3.98046875 C87.49474487 4.23594482 87.49474487 4.23594482 89.27075195 4.49658203 C101.2080052 6.29913566 113.02687407 8.5765951 124.81640625 11.16796875 C126.3487793 11.50417236 126.3487793 11.50417236 127.91210938 11.84716797 C173.9203116 22.0912947 218.59482177 39.30181523 259.81640625 62.16796875 C260.51765625 62.55130371 261.21890625 62.93463867 261.94140625 63.32958984 C272.36039108 69.06054024 282.23204229 75.65438717 292.12890625 82.23046875 C292.76716339 82.65376465 293.40542053 83.07706055 294.0630188 83.51318359 C302.52682446 89.13837581 310.75447073 94.97509226 318.81640625 101.16796875 C319.48293213 101.67674561 320.14945801 102.18552246 320.83618164 102.7097168 C333.46551326 112.39966322 345.49219895 122.75751886 357.13720703 133.60644531 C359.04452958 135.38010554 360.96002917 137.14475763 362.875 138.91015625 C364.29333525 140.22486513 365.7113068 141.53996651 367.12890625 142.85546875 C367.78681152 143.46108643 368.4447168 144.0667041 369.12255859 144.69067383 C373.10271456 148.40176441 376.74510801 152.2761803 380.28686523 156.40698242 C381.9947383 158.37328544 383.80259162 160.18819353 385.69140625 161.98046875 C389.58452107 165.82127685 392.99957409 169.94669434 396.41796875 174.2109375 C398.4523697 176.71914845 400.5370833 179.1696663 402.65478516 181.60742188 C427.44896688 210.28719198 448.47576381 244.02145557 464.81640625 278.16796875 C465.18459473 278.9347998 465.5527832 279.70163086 465.93212891 280.49169922 C488.49143753 327.85383636 503.62740884 377.85993584 511.00390625 429.79296875 C511.15891602 430.87465332 511.31392578 431.95633789 511.47363281 433.07080078 C514.37078184 454.55325553 515.19277273 475.94397321 515.12890625 497.60546875 C515.1267511 498.92523712 515.12459595 500.24500549 515.12237549 501.60476685 C515.07808913 521.62501093 514.5971358 541.31810689 511.81640625 561.16796875 C511.71930359 561.87818176 511.62220093 562.58839478 511.52215576 563.32012939 C504.04062482 617.93100301 488.66948107 672.00889844 462.96679688 720.95703125 C461.58653063 723.60976706 460.24147603 726.2794125 458.89453125 728.94921875 C446.12405103 754.10331276 431.09778175 777.85873662 413.81640625 800.16796875 C413.38618164 800.72822754 412.95595703 801.28848633 412.51269531 801.86572266 C407.24000036 808.72696197 401.85998531 815.37411563 395.9921875 821.7421875 C393.68693931 824.31231161 391.5331858 826.97040329 389.37890625 829.66796875 C385.57107857 834.37957403 381.46604504 838.62417992 377.1328125 842.8515625 C375.17586804 844.80850696 373.39421004 846.79147749 371.62890625 848.91796875 C365.948564 855.5540084 359.25252399 861.28301513 352.81640625 867.16796875 C351.42615234 868.44800781 351.42615234 868.44800781 350.0078125 869.75390625 C345.103567 874.22657815 340.06818463 878.50056771 334.90234375 882.66796875 C332.66099136 884.4837479 330.44041304 886.31484447 328.23046875 888.16796875 C318.99863611 895.86448581 309.42084927 902.81616293 299.40283203 909.45263672 C296.71883651 911.23267754 294.04718871 913.03041916 291.375 914.828125 C261.0285598 935.09242034 228.75406256 950.88045453 194.81640625 964.16796875 C193.37092535 964.74567257 191.92558886 965.32373801 190.48046875 965.90234375 C136.72318621 986.86430298 78.52057298 996.35711735 21.03637695 996.35327148 C17.41670752 996.35544604 13.79734977 996.37363499 10.17773438 996.39257812 C-56.60176906 996.55292295 -121.98213757 981.49682913 -183.18359375 955.16796875 C-184.07256348 954.78962891 -184.9615332 954.41128906 -185.87744141 954.02148438 C-220.96510302 939.01950585 -253.88670649 919.33566083 -284.18359375 896.16796875 C-285.05153564 895.50619629 -285.05153564 895.50619629 -285.93701172 894.83105469 C-298.68637386 885.06812447 -310.8085576 874.61236976 -322.56054688 863.67333984 C-324.34965318 862.01394912 -326.14922305 860.36631937 -327.94921875 858.71875 C-334.22981661 852.94690251 -340.33796507 847.16424181 -345.9453125 840.72265625 C-348.1237655 838.23625439 -350.35965627 835.81845392 -352.61816406 833.40527344 C-357.54048205 828.13903804 -362.27370357 822.78335072 -366.78515625 817.15625 C-368.57404512 814.92742266 -370.37965616 812.72027254 -372.20703125 810.5234375 C-388.85230937 790.43845234 -403.1227644 768.5940025 -416.11962891 745.99902344 C-417.07278655 744.35866495 -418.05414382 742.73476843 -419.0390625 741.11328125 C-424.03489466 732.85929768 -428.07278517 724.21261162 -432.11669922 715.46630859 C-433.07646317 713.39875302 -434.04955802 711.33846034 -435.03125 709.28125 C-456.49082109 664.06461387 -470.39170519 616.01299787 -477.37109375 566.48046875 C-477.52594238 565.39096924 -477.68079102 564.30146973 -477.84033203 563.17895508 C-478.33353854 559.51318024 -478.77556191 555.84400161 -479.18359375 552.16796875 C-479.3159996 550.98527405 -479.3159996 550.98527405 -479.45108032 549.77868652 C-481.27233841 532.95154627 -481.54488611 516.20695657 -481.49609375 499.29296875 C-481.49387058 497.93343106 -481.4916941 496.5738933 -481.48956299 495.21435547 C-481.44578484 475.04516185 -480.99714613 455.16871129 -478.18359375 435.16796875 C-478.08649109 434.45882324 -477.98938843 433.74967773 -477.88934326 433.01904297 C-466.43447686 349.44826278 -434.90853567 268.81234854 -384.18359375 201.16796875 C-383.7246875 200.55598633 -383.26578125 199.94400391 -382.79296875 199.31347656 C-371.2932586 184.05099361 -359.23955995 168.60594462 -345.37890625 155.390625 C-343.45772676 153.44551623 -341.692139 151.4529526 -339.9140625 149.37890625 C-336.3034398 145.21965772 -332.41865388 141.45996779 -328.37109375 137.73046875 C-327.66895752 137.07868652 -326.96682129 136.4269043 -326.2434082 135.75537109 C-324.22790551 133.88802281 -322.20680808 132.02695432 -320.18359375 130.16796875 C-319.23484375 129.29269531 -318.28609375 128.41742188 -317.30859375 127.515625 C-312.42607443 123.06345594 -307.40749968 118.81351941 -302.265625 114.6640625 C-300.0384233 112.86028317 -297.83039267 111.04218045 -295.6328125 109.203125 C-275.06659293 92.08786074 -252.48404324 77.29100767 -229.18359375 64.16796875 C-227.71696289 63.34039062 -227.71696289 63.34039062 -226.22070312 62.49609375 C-158.05977613 24.32929348 -78.46303303 0.07255338 0 0 Z M-52.18359375 90.16796875 C-53.2293457 90.35230469 -54.27509766 90.53664063 -55.35253906 90.7265625 C-112.46062076 100.99079782 -168.59069483 122.6198815 -216.18359375 156.16796875 C-216.83714844 156.62606934 -217.49070312 157.08416992 -218.1640625 157.55615234 C-232.60649143 167.71058005 -246.45781515 178.44878236 -259.33984375 190.53515625 C-261.5261425 192.55928449 -263.7364055 194.51700455 -265.9921875 196.4609375 C-270.43005113 200.32769471 -274.59657378 204.43341745 -278.74609375 208.60546875 C-279.46216797 209.31767578 -280.17824219 210.02988281 -280.91601562 210.76367188 C-285.54526876 215.4013495 -289.91810759 220.19575956 -294.18359375 225.16796875 C-295.14476481 226.26265787 -296.1069529 227.35645512 -297.0703125 228.44921875 C-356.38763866 296.35098433 -391.54251044 385.21087004 -396.38671875 522.16308594 C-396.3196875 523.15469727 -396.25265625 524.14630859 -396.18359375 525.16796875 C-396.126875 526.0899707 -396.07015625 527.01197266 -396.01171875 527.96191406 C-392.05308283 589.7481235 -372.41782834 648.78427998 -342.93359375 702.91796875 C-342.47984375 703.75199219 -342.02609375 704.58601562 -341.55859375 705.4453125 C-341.1409375 706.19425781 -340.72328125 706.94320312 -340.29296875 707.71484375 C-339.7510791 708.68695801 -339.7510791 708.68695801 -339.19824219 709.67871094 C-338.24239148 711.34164091 -338.24239148 711.34164091 -336.18359375 712.16796875 C-336.40273438 711.20503906 -336.621875 710.24210938 -336.84765625 709.25 C-345.78783229 669.67430695 -353.32980783 629.85798274 -354.18359375 589.16796875 C-354.20550781 588.12914551 -354.22742188 587.09032227 -354.25 586.02001953 C-355.64816554 506.12651049 -336.1242923 424.08604919 -291.18359375 357.16796875 C-290.7551416 356.5239209 -290.32668945 355.87987305 -289.88525391 355.21630859 C-270.88363057 326.74506925 -248.97730252 300.74643002 -224.75488281 276.60888672 C-222.91743615 274.7768588 -221.08547725 272.9394627 -219.25390625 271.1015625 C-213.3990937 265.24319496 -207.51700774 259.51333349 -201.18359375 254.16796875 C-200.1228938 253.231547 -199.06423613 252.29280593 -198.0078125 251.3515625 C-148.13826042 207.45938966 -84.91446817 180.97831207 -19.18359375 173.16796875 C-18.30985107 173.06339355 -17.4361084 172.95881836 -16.53588867 172.85107422 C-5.77581683 171.76486561 5.07587646 171.92407479 15.87890625 171.91796875 C17.48585861 171.91695663 17.48585861 171.91695663 19.12527466 171.91592407 C35.54062789 171.93233835 51.59692728 172.40504597 67.81640625 175.16796875 C68.86151367 175.34489258 69.90662109 175.52181641 70.98339844 175.70410156 C122.23387437 184.67177324 172.72707416 204.87553974 213.81640625 237.16796875 C214.94311853 238.02851276 216.07076572 238.8878337 217.19921875 239.74609375 C224.37068387 245.23982625 231.12234497 251.03751886 237.68359375 257.24609375 C239.97767529 259.41579961 242.33788912 261.48709868 244.734375 263.54296875 C248.83107655 267.10930247 252.56454944 270.93598272 256.25390625 274.91796875 C256.90931396 275.62332764 257.56472168 276.32868652 258.23999023 277.05541992 C268.70803223 288.39827912 277.744576 300.70316929 286.81640625 313.16796875 C288.23535179 309.35027432 287.3768833 306.71338864 286.26171875 302.875 C285.89892822 301.61768066 285.5361377 300.36036133 285.16235352 299.06494141 C284.7563491 297.70315855 284.349342 296.3416743 283.94140625 294.98046875 C283.73699921 294.28846375 283.53259216 293.59645874 283.32199097 292.88348389 C271.1614361 251.7555556 253.66953938 212.6016871 234.81640625 174.16796875 C234.07920859 172.65245001 233.34219319 171.13684259 232.60546875 169.62109375 C231.39824512 167.143092 230.14829831 164.69439779 228.8671875 162.25390625 C227.1822533 159.01371211 225.77119772 155.69955359 224.359375 152.33203125 C216.94633936 135.64785551 208.13036338 129.11334026 191.31884766 122.53857422 C187.86870478 121.18843466 184.47505762 119.74395185 181.078125 118.265625 C137.69530151 99.63500344 91.02258081 87.87784273 43.81640625 85.16796875 C42.8320459 85.1023877 41.84768555 85.03680664 40.83349609 84.96923828 C9.84756369 82.97369638 -21.6230965 84.70569189 -52.18359375 90.16796875 Z M-143.18359375 316.16796875 C-144.04855469 316.91949219 -144.91351563 317.67101562 -145.8046875 318.4453125 C-156.56497767 327.96601724 -166.21842698 337.87584281 -174.82910156 349.36914062 C-176.16621621 351.14489058 -177.52800252 352.89917298 -178.89453125 354.65234375 C-215.8687951 402.75600684 -231.66015369 466.77601861 -224.43359375 526.67578125 C-216.35110284 588.23587708 -186.15950625 647.40717384 -136.8125 686.1640625 C-135.94496094 686.82535156 -135.07742188 687.48664063 -134.18359375 688.16796875 C-133.24386719 688.90144531 -132.30414063 689.63492187 -131.3359375 690.390625 C-80.97493587 729.07371321 -16.95131938 746.96180364 46.12939453 739.22631836 C69.06076872 736.20211647 91.61046099 730.49879625 112.81640625 721.16796875 C113.52555176 720.86052734 114.23469727 720.55308594 114.96533203 720.23632812 C138.27255998 710.02966471 158.77414049 695.91736687 177.81640625 679.16796875 C178.71617187 678.38164063 179.6159375 677.5953125 180.54296875 676.78515625 C227.79966498 634.9292253 255.46076978 574.7113123 259.42382812 511.92578125 C262.36514493 455.03346171 245.65295318 395.94671643 209.81640625 351.16796875 C209.18605469 350.34683594 208.55570313 349.52570313 207.90625 348.6796875 C202.29484389 341.45514617 196.12167633 334.78437308 189.81640625 328.16796875 C189.29385254 327.6167334 188.77129883 327.06549805 188.23291016 326.49755859 C180.33632983 318.21649146 172.01006907 310.96974536 162.81640625 304.16796875 C162.18283203 303.69004883 161.54925781 303.21212891 160.89648438 302.71972656 C82.96197769 244.13367768 -26.80365184 240.23992983 -143.18359375 316.16796875 Z M367.81640625 280.16796875 C368.81640625 282.16796875 368.81640625 282.16796875 368.81640625 282.16796875 Z M368.81640625 282.16796875 C369.4534561 289.36940183 371.23290072 296.24363491 372.96841431 303.24230957 C393.05348215 384.84626791 393.59553841 469.72790331 367.81640625 550.16796875 C367.55359863 550.9882959 367.29079102 551.80862305 367.02001953 552.65380859 C351.42826578 600.53309517 324.42392973 649.14427455 289.82421875 685.98046875 C287.51440843 688.49699361 285.3902656 691.12795098 283.25390625 693.79296875 C279.94675095 697.88233817 276.48213424 701.62114164 272.70703125 705.27734375 C270.83973867 707.14463633 269.1423332 709.08661153 267.44140625 711.10546875 C264.0462827 715.05615798 260.26873638 718.43701601 256.36328125 721.875 C253.88442002 724.10673549 251.53133455 726.41673121 249.19140625 728.79296875 C245.92307574 732.10122651 242.56385557 735.20851705 239.03125 738.23046875 C236.83987643 740.14743752 234.71462704 742.12593854 232.59155273 744.11791992 C226.3334885 749.965258 219.77348199 755.15992302 212.81640625 760.16796875 C211.73759694 760.96522068 210.65948673 761.76341937 209.58203125 762.5625 C163.29734129 796.61620583 107.75066566 817.00581661 50.81640625 823.16796875 C49.44440063 823.32265625 49.44440063 823.32265625 48.04467773 823.48046875 C38.01816847 824.47257851 27.94461775 824.41168653 17.87890625 824.41796875 C16.90553314 824.41864349 15.93216003 824.41931824 14.92929077 824.42001343 C-34.28430497 824.36603954 -81.82723576 813.62474232 -126.18359375 792.16796875 C-127.62774658 791.4704248 -127.62774658 791.4704248 -129.10107422 790.75878906 C-155.32138122 777.94482714 -178.63291345 761.64365145 -200.5949707 742.53515625 C-202.19527625 741.15791465 -203.81456052 739.8066766 -205.44140625 738.4609375 C-208.19495376 736.15846971 -210.67690074 733.73580061 -213.18359375 731.16796875 C-213.71855469 730.64332031 -214.25351562 730.11867188 -214.8046875 729.578125 C-218.48884183 725.95961262 -221.95566798 722.2214023 -225.3203125 718.3046875 C-226.59033635 716.84828698 -227.88599423 715.41394115 -229.203125 714 C-238.89163245 703.5783082 -247.17034119 691.90569081 -255.18359375 680.16796875 C-256.37057611 683.72891583 -255.92059793 684.99601555 -254.953125 688.57421875 C-254.50054321 690.25064453 -254.50054321 690.25064453 -254.03881836 691.9609375 C-253.69471924 693.18425781 -253.35062012 694.40757812 -252.99609375 695.66796875 C-252.81853546 696.30299316 -252.64097717 696.93801758 -252.45803833 697.59228516 C-240.18608028 741.27523225 -222.89690652 783.64205332 -202.28125 824.03125 C-200.56846042 827.38770313 -198.90225583 830.76560704 -197.2421875 834.1484375 C-196.7169751 835.21352539 -196.1917627 836.27861328 -195.65063477 837.37597656 C-194.61925541 839.46815354 -193.59212385 841.5624321 -192.57006836 843.65917969 C-191.15283698 846.52166881 -189.68637473 849.34955609 -188.18359375 852.16796875 C-187.75965332 852.99192139 -187.33571289 853.81587402 -186.89892578 854.66479492 C-182.89087584 861.61281156 -177.44401361 864.3163101 -170.30859375 867.60546875 C-169.15818604 868.1562207 -168.00777832 868.70697266 -166.82250977 869.27441406 C-155.44855554 874.65563972 -143.91080428 879.61100048 -132.18359375 884.16796875 C-131.19069336 884.55436523 -130.19779297 884.94076172 -129.17480469 885.33886719 C-102.55079238 895.57491188 -75.25212481 902.39494352 -47.18359375 907.16796875 C-46.20890137 907.3366748 -45.23420898 907.50538086 -44.22998047 907.67919922 C-15.49471261 912.49519486 14.80122946 913.24903451 43.81640625 911.16796875 C45.02989746 911.08417969 46.24338867 911.00039063 47.49365234 910.9140625 C137.26118482 904.367913 227.05873149 867.64355183 292.97265625 805.80078125 C295.14850915 803.78632403 297.34777884 801.83957886 299.59375 799.90625 C304.2199002 795.87543672 308.55268997 791.5787014 312.87890625 787.23046875 C313.64267578 786.47056641 314.40644531 785.71066406 315.19335938 784.92773438 C319.94172696 780.17124298 324.4522517 775.27773723 328.81640625 770.16796875 C329.70543671 769.14688071 330.59473831 768.12602865 331.484375 767.10546875 C395.06306525 692.97961593 428.52700914 598.64734535 429.81640625 471.16796875 C429.7596875 470.2459668 429.70296875 469.32396484 429.64453125 468.37402344 C425.50283557 403.73062559 405.17608839 336.73713616 369.81640625 282.16796875 C369.48640625 282.16796875 369.15640625 282.16796875 368.81640625 282.16796875 Z M287.81640625 313.16796875 C288.81640625 315.16796875 288.81640625 315.16796875 288.81640625 315.16796875 Z M-257.18359375 678.16796875 C-256.18359375 680.16796875 -256.18359375 680.16796875 -256.18359375 680.16796875 Z " fill="#000000" transform="translate(583.18359375,101.83203125)"/>
</svg>
